Coordinates
version=1
nRows=16
nColumns=22
inDegrees=yes

Units are S.I. units (second, meters, Newtons, ...)
If the header above contains a line with 'inDegrees', this indicates whether rotational values are in degrees (yes) or radians (no).

endheader
time	pelvis_tilt	pelvis_list	pelvis_rotation	pelvis_tx	pelvis_ty	pelvis_tz	hip_flexion_r	hip_adduction_r	hip_rotation_r	knee_angle_r	ankle_angle_r	subtalar_angle_r	hip_flexion_l	hip_adduction_l	hip_rotation_l	knee_angle_l	ankle_angle_l	subtalar_angle_l	lumbar_extension	lumbar_bending	lumbar_rotation
      6.39000000	     -3.01570388	     -3.67371436	    293.45745863	     -0.16804405	      1.00374771	      0.31136407	     17.10455485	      7.07135029	      7.41636938	    -22.92388686	      4.05355898	      3.63932785	     -5.30622619	      2.74698377	     14.74902814	    -35.41544704	      7.87323251	     -2.26920914	    -11.87684669	      4.80113226	      3.15329279
      6.40000000	     -3.15185370	     -3.72977583	    294.15182935	     -0.16628579	      1.00429986	      0.31672993	     16.69547658	      7.15996213	      6.91556160	    -22.80872094	      4.34006518	      3.36615773	     -4.51152158	      2.36243311	     13.65170717	    -37.12794386	      6.69646130	     -1.92012795	    -11.83488500	      5.02957697	      3.07242416
      6.41000000	     -3.28123763	     -3.71319077	    294.86796492	     -0.16455921	      1.00467292	      0.32190671	     16.40286372	      7.20950347	      6.34802241	    -22.75315813	      4.66702940	      3.00993172	     -3.54821383	      1.95213978	     12.39270240	    -38.93169850	      5.59508745	     -1.44799642	    -11.73428725	      5.20786003	      3.00365470
      6.42000000	     -3.42558250	     -3.72249500	    295.62802428	     -0.16288045	      1.00501631	      0.32687387	     16.09886978	      7.29098926	      5.81191663	    -22.68112278	      4.96987426	      2.71858060	     -2.50945193	      1.44542686	     11.04098899	    -40.81727946	      4.57724813	     -1.03513394	    -11.67940808	      5.40707897	      2.90194420
      6.43000000	     -3.59025868	     -3.74068285	    296.42057621	     -0.16127339	      1.00529007	      0.33166352	     15.81071184	      7.40017161	      5.26467601	    -22.60294653	      5.25034512	      2.45839209	     -1.38730582	      0.82867671	      9.57872732	    -42.75696947	      3.72417550	     -0.65989875	    -11.64346421	      5.62051107	      2.79112260
      6.44000000	     -3.77137538	     -3.75582455	    297.23913036	     -0.15976035	      1.00549398	      0.33631352	     15.54142835	      7.53226830	      4.72562231	    -22.51045406	      5.53843919	      2.20207542	     -0.19252675	      0.10260380	      8.02429107	    -44.70720964	      3.06093633	     -0.30479569	    -11.60922827	      5.83372171	      2.67016592
      6.45000000	     -3.97345547	     -3.82608102	    298.07532619	     -0.15836110	      1.00570210	      0.34080771	     15.24680318	      7.71965564	      4.17498078	    -22.41140591	      5.77078688	      1.98236033	      1.00410212	     -0.76449172	      6.41315267	    -46.63558337	      2.65371050	     -0.06545268	    -11.64424965	      6.08115647	      2.58326731
      6.46000000	     -4.17893451	     -3.91668727	    298.91847953	     -0.15705110	      1.00592002	      0.34521803	     14.92896513	      7.93275233	      3.63975342	    -22.27239810	      5.99572410	      1.76119205	      2.18922731	     -1.73002840	      4.77993097	    -48.46992363	      2.47916571	      0.05168710	    -11.70408468	      6.32741824	      2.51176348
      6.47000000	     -4.36996542	     -4.08174405	    299.76088849	     -0.15581561	      1.00624623	      0.34954670	     14.52551631	      8.18615939	      3.13437408	    -22.09169195	      6.18864200	      1.58357033	      3.27932253	     -2.78070585	      3.18254931	    -50.17274720	      2.54549342	     -0.01267415	    -11.85822834	      6.58498346	      2.47895627
      6.48000000	     -4.54446957	     -4.21850683	    300.58455668	     -0.15460331	      1.00657025	      0.35380364	     14.14410476	      8.41697858	      2.61313587	    -21.89265413	      6.35988402	      1.33811071	      4.34439584	     -3.83020213	      1.63910970	    -51.69247632	      2.80864725	     -0.31218525	    -11.98973382	      6.80328970	      2.50625423
      6.49000000	     -4.67162777	     -4.39434700	    301.39469421	     -0.15337979	      1.00701292	      0.35796501	     13.69104007	      8.63894831	      2.13590799	    -21.65778180	      6.53992240	      1.09056831	      5.29325039	     -4.84628536	      0.21113661	    -53.00834675	      3.23514545	     -0.88057059	    -12.18952710	      6.99654285	      2.56455499
      6.50000000	     -4.74084111	     -4.58262879	    302.17783951	     -0.15210278	      1.00757368	      0.36202235	     13.19062319	      8.82034087	      1.66347391	    -21.39917253	      6.68780947	      0.87728545	      6.12998910	     -5.77356719	     -1.09469863	    -54.09224408	      3.79577504	     -1.55765994	    -12.43605296	      7.14623703	      2.68095750
      6.51000000	     -4.76421290	     -4.75756825	    302.93306870	     -0.15077120	      1.00820611	      0.36594382	     12.67955694	      8.95671134	      1.19610112	    -21.12936736	      6.78847214	      0.69422495	      6.89568008	     -6.58455814	     -2.26344743	    -54.95681048	      4.42257925	     -2.19536829	    -12.69866755	      7.25380218	      2.84345381
      6.52000000	     -4.72142758	     -4.89308255	    303.65896406	     -0.14934627	      1.00888745	      0.36973560	     12.16068445	      9.01258578	      0.74126395	    -20.84605121	      6.95279125	      0.48920056	      7.59282051	     -7.21890518	     -3.28612202	    -55.59034422	      5.06509284	     -2.84970940	    -12.95584626	      7.28595405	      3.05111637
      6.53000000	     -4.65030432	     -4.99881387	    304.35593406	     -0.14788402	      1.00958609	      0.37336063	     11.66117659	      9.02792153	      0.30053994	    -20.56768735	      7.07687755	      0.33093335	      8.25754712	     -7.72174452	     -4.17381519	    -56.03036279	      5.67589895	     -3.24829996	    -13.20929398	      7.28629949	      3.26875310
      6.54000000	     -4.54070485	     -5.06327015	    305.02255299	     -0.14635900	      1.01028963	      0.37685027	     11.17155190	      8.98333435	     -0.13979220	    -20.27888732	      7.22915800	      0.17447295	      8.88429686	     -8.06883071	     -4.92996005	    -56.27037055	      6.22638464	     -3.46826238	    -13.44605523	      7.23327009	      3.53311223
